{"title":"Franklin.and.Bash.S02E05.The affair of the Heart.480p.WEB-DL.DD5","uid":7495759,"size":276216392,"categoryP":"video","categoryS":"hd___tv_shows","magnet":"?xt=urn:btih:2d3f4954a9ee2eb35d94422febcb060b389c6567&amp;dn=Franklin.and.Bash.S02E05.The+affair+of+the+Heart.480p.WEB-DL.DD5&amp;tr=udp%3A%2F%2Ftracker.openbittorrent.com%3A80&amp;tr=udp%3A%2F%2Fopen.demonii.com%3A1337&amp;tr=udp%3A%2F%2Ftracker.coppersurfer.tk%3A6969&amp;tr=udp%3A%2F%2Fexodus.desync.com%3A6969","seeders":0,"leechers":1,"uploader":"sceneline","files":7,"time":1343872894,"description":"- &lt;a href=&quot;\nhttp://www.Speed.Cd&quot; rel=&quot;nofollow&quot; target=&quot;_NEW&quot;&gt;\nhttp://www.Speed.Cd&lt;/a&gt;\n &lt;a href=&quot;\nhttp://www.Speed.Cd&quot; rel=&quot;nofollow&quot; target=&quot;_NEW&quot;&gt;\nhttp://www.Speed.Cd&lt;/a&gt;       the fast  and The Hottest Private Tracker on the net\n\n(((--Registration is Open!!--)))\n\nPlease Seed back to make the speed Faster!!!\n\nand don't forget to visit .......http://www.Speed.Cd  ......\n\n\n ............ NFO .............\n-[b]General[/b]\n\nComplete name                            : Franklin.and.Bash.S02E05.The affair of the Heart.480p.WEB-DL.DD5.1.H.264.mkv\nFormat                                   : Matroska\nFormat version                           : Version 1\nFile size                                : 262 MiB\nDuration                                 : 42mn 10s\nOverall bit rate                         : 869 Kbps\nEncoded date                             : UTC 2012-08-01 22:48:03\nWriting application                      : AVSMatroskaFile\nWriting library                          : libebml v0.7.7 + libmatroska v0.8.1\n\n[b]Video[/b]\n\nID                                       : 1\nFormat                                   : AVC\nFormat/Info                              : Advanced Video Codec\nFormat profile                           : &lt;a class=&quot;__cf_email__&quot; href=&quot;/cdn-cgi/l/email-protection&quot; data-cfemail=&quot;6b260a02052b275e455a&quot;&gt;[email&amp;#160;protected]&lt;/a&gt;&lt;script cf-hash='f9e31' type=&quot;text/javascript&quot;&gt;\n/* &lt;![CDATA[ */!function(){try{var t=&quot;currentScript&quot;in document?document.currentScript:function(){for(var t=document.getElementsByTagName(&quot;script&quot;),e=t.length;e--;)if(t[e].getAttribute(&quot;cf-hash&quot;))return t[e]}();if(t&amp;&amp;t.previousSibling){var e,r,n,i,c=t.previousSibling,a=c.getAttribute(&quot;data-cfemail&quot;);if(a){for(e=&quot;&quot;,r=parseInt(a.substr(0,2),16),n=2;a.length-n;n+=2)i=parseInt(a.substr(n,2),16)^r,e+=String.fromCharCode(i);e=document.createTextNode(e),c.parentNode.replaceChild(e,c)}}}catch(u){}}();/* ]]&gt; */&lt;/script&gt;\nFormat settings, CABAC                   : Yes\nFormat settings, ReFrames                : 1 frame\nCodec ID                                 : V_MPEG4/ISO/AVC\nDuration                                 : 42mn 10s\nBit rate                                 : 692 Kbps\nWidth                                    : 852 pixels\nHeight                                   : 480 pixels\nDisplay aspect ratio                     : 16:9\nFrame rate                               : 23.976 fps\nColor space                              : YUV\nChroma subsampling                       : 4:2:0\nBit depth                                : 8 bits\nScan type                                : Progressive\nBits/(Pixel*Frame)                       : 0.071\nStream size                              : 209 MiB (80%)\nDefault                                  : Yes\nForced                                   : No\n\n[b]Audio[/b]\n\nID                                       : 2\nFormat                                   : MPEG Audio\nFormat version                           : Version 1\nFormat profile                           : Layer 3\nCodec ID                                 : A_MPEG/L3\nCodec ID/Hint                            : MP3\nDuration                                 : 42mn 10s\nBit rate mode                            : Constant\nBit rate                                 : 160 Kbps\nChannel(s)                               : 2 channels\nSampling rate                            : 48.0 KHz\nCompression mode                         : Lossy\nStream size                              : 48.3 MiB (18%)\nWriting library                          : LAMELAME_MAJOR_VERSI\nDefault                                  : Yes\nForced                                   : No","torrent":{"xt":"urn:btih:2d3f4954a9ee2eb35d94422febcb060b389c6567","amp;dn":"Franklin.and.Bash.S02E05.The+affair+of+the+Heart.480p.WEB-DL.DD5","amp;tr":["udp%3A%2F%2Ftracker.openbittorrent.com%3A80","udp%3A%2F%2Fopen.demonii.com%3A1337","udp%3A%2F%2Ftracker.coppersurfer.tk%3A6969","udp%3A%2F%2Fexodus.desync.com%3A6969"],"infoHash":"2d3f4954a9ee2eb35d94422febcb060b389c6567","infoHashBuffer":{"type":"Buffer","data":[45,63,73,84,169,238,46,179,93,148,66,47,235,203,6,11,56,156,101,103]},"announce":[],"urlList":[]}}